<svg id="visual" viewBox="0 0 960 540" width="960" height="540" xmlns="http://www.w3.org/2000/svg" xmlns:xlink="http://www.w3.org/1999/xlink" version="1.1"><path d="M0 425L22.8 415C45.7 405 91.3 385 137 374.2C182.7 363.3 228.3 361.7 274 368.5C319.7 375.3 365.3 390.7 411.2 402.2C457 413.7 503 421.3 548.8 419.3C594.7 417.3 640.3 405.7 686 402.2C731.7 398.7 777.3 403.3 823 403.5C868.7 403.7 914.3 399.3 937.2 397.2L960 395L960 541L937.2 541C914.3 541 868.7 541 823 541C777.3 541 731.7 541 686 541C640.3 541 594.7 541 548.8 541C503 541 457 541 411.2 541C365.3 541 319.7 541 274 541C228.3 541 182.7 541 137 541C91.3 541 45.7 541 22.8 541L0 541Z" fill="#ff7f11"></path><path d="M0 448L22.8 448C45.7 448 91.3 448 137 447.7C182.7 447.3 228.3 446.7 274 445.3C319.7 444 365.3 442 411.2 435.7C457 429.3 503 418.7 548.8 418.5C594.7 418.3 640.3 428.7 686 427.8C731.7 427 777.3 415 823 407.3C868.7 399.7 914.3 396.3 937.2 394.7L960 393L960 541L937.2 541C914.3 541 868.7 541 823 541C777.3 541 731.7 541 686 541C640.3 541 594.7 541 548.8 541C503 541 457 541 411.2 541C365.3 541 319.7 541 274 541C228.3 541 182.7 541 137 541C91.3 541 45.7 541 22.8 541L0 541Z" fill="#ff7206"></path><path d="M0 468L22.8 463.5C45.7 459 91.3 450 137 450.3C182.7 450.7 228.3 460.3 274 462.8C319.7 465.3 365.3 460.7 411.2 454.7C457 448.7 503 441.3 548.8 436.5C594.7 431.7 640.3 429.3 686 429.8C731.7 430.3 777.3 433.7 823 437.2C868.7 440.7 914.3 444.3 937.2 446.2L960 448L960 541L937.2 541C914.3 541 868.7 541 823 541C777.3 541 731.7 541 686 541C640.3 541 594.7 541 548.8 541C503 541 457 541 411.2 541C365.3 541 319.7 541 274 541C228.3 541 182.7 541 137 541C91.3 541 45.7 541 22.8 541L0 541Z" fill="#ff6300"></path><path d="M0 491L22.8 487.3C45.7 483.7 91.3 476.3 137 476.3C182.7 476.3 228.3 483.7 274 488.2C319.7 492.7 365.3 494.3 411.2 494.2C457 494 503 492 548.8 486.7C594.7 481.3 640.3 472.7 686 469.2C731.7 465.7 777.3 467.3 823 470.3C868.7 473.3 914.3 477.7 937.2 479.8L960 482L960 541L937.2 541C914.3 541 868.7 541 823 541C777.3 541 731.7 541 686 541C640.3 541 594.7 541 548.8 541C503 541 457 541 411.2 541C365.3 541 319.7 541 274 541C228.3 541 182.7 541 137 541C91.3 541 45.7 541 22.8 541L0 541Z" fill="#ff5300"></path><path d="M0 488L22.8 488.7C45.7 489.3 91.3 490.7 137 492.8C182.7 495 228.3 498 274 498C319.7 498 365.3 495 411.2 492.7C457 490.3 503 488.7 548.8 493C594.7 497.3 640.3 507.7 686 511.8C731.7 516 777.3 514 823 513.5C868.7 513 914.3 514 937.2 514.5L960 515L960 541L937.2 541C914.3 541 868.7 541 823 541C777.3 541 731.7 541 686 541C640.3 541 594.7 541 548.8 541C503 541 457 541 411.2 541C365.3 541 319.7 541 274 541C228.3 541 182.7 541 137 541C91.3 541 45.7 541 22.8 541L0 541Z" fill="#ff3f00"></path></svg>